# xmcd CD database file
#
# Track frame offsets:
#	150
#	24670
#	53147
#
# Disc length: 1035 seconds
#
# Revision: 3
# Processed by: cddbd v1.5PL3 Copyright (c) Steve Scherf et al.
# Submitted via: CDex 1.51
#
DISCID=1e040903
DTITLE=丹下桜 - TO LOVE
DYEAR=1999
DGENRE=JPop
TTITLE0=TO LOVE
TTITLE1=Tears
TTITLE2=TO LOVE(Original Karaoke)
EXTD=YEAR: 1999
EXTT0=
EXTT1=
EXTT2=
PLAYORDER=
